<svg width="204" height="204" viewBox="0 0 204 204" fill="none" xmlns="http://www.w3.org/2000/svg">
<g clip-path="url(#clip0_19_22)">
<path fill-rule="evenodd" clip-rule="evenodd" d="M42.3715 17C30.7314 17 22.1184 27.1879 22.504 38.2367C22.8739 48.8516 22.3933 62.5992 18.9322 73.8105C15.4608 85.0544 9.5897 92.1774 0 93.092V103.416C9.5897 104.331 15.4608 111.454 18.9322 122.698C22.3933 133.909 22.8739 147.657 22.504 158.272C22.1184 169.319 30.7314 179.508 42.3732 179.508H161.644C173.284 179.508 181.896 169.321 181.51 158.272C181.14 147.657 181.62 133.909 185.082 122.698C188.555 111.454 194.41 104.331 204 103.416V93.092C194.41 92.1774 188.555 85.0544 185.082 73.8105C181.62 62.6009 181.14 48.8516 181.51 38.2367C181.896 27.1896 173.284 17 161.644 17H42.3715ZM138.305 117.034C138.305 132.248 126.957 141.475 108.125 141.475H76.0678C75.1508 141.475 74.2713 141.11 73.6229 140.462C72.9745 139.813 72.6101 138.934 72.6101 138.017V58.4916C72.6101 57.5745 72.9745 56.6951 73.6229 56.0466C74.2713 55.3982 75.1508 55.0339 76.0678 55.0339H107.942C123.644 55.0339 133.95 63.5396 133.95 76.5991C133.95 85.765 127.018 93.9717 118.185 95.4082V95.8877C130.209 97.2069 138.305 105.533 138.305 117.034ZM104.63 65.9946H86.3507V91.8128H101.746C113.647 91.8128 120.21 87.0205 120.21 78.4542C120.21 70.4273 114.566 65.9946 104.63 65.9946ZM86.3507 102.058V130.511H105.302C117.693 130.511 124.256 125.538 124.256 116.194C124.256 106.848 117.509 102.056 104.505 102.056L86.3507 102.058Z" fill="url(#paint0_linear_19_22)"/>
</g>
<defs>
<linearGradient id="paint0_linear_19_22" x1="259" y1="98" x2="-37" y2="98" gradientUnits="userSpaceOnUse">
<stop stop-color="#4A2FBD"/>
<stop offset="1" stop-color="#AA367C"/>
</linearGradient>
<clipPath id="clip0_19_22">
<rect width="204" height="204" fill="white"/>
</clipPath>
</defs>
</svg>
