<svg width="204" height="204" viewBox="0 0 204 204" fill="none" xmlns="http://www.w3.org/2000/svg">
<path d="M192.489 0.199646L175.52 184.004L101.999 203.8L28.4761 184.004L11.5103 0.199646H192.489ZM158.295 37.5735H101.932H44.5714L47.3146 59.7696H101.932H105L101.932 61.0466L49.3108 82.9631L51.056 104.659L101.932 104.824L129.201 104.911L127.455 133.84L101.932 141.025V141.003L101.723 141.061L77.0739 134.838L75.5782 116.881H75.4965H52.6334H52.5529L55.5456 151.548L101.933 165.266V165.241L102.017 165.266L148.155 151.798L154.14 82.9631H101.933H101.804L101.933 82.9073L156.053 59.7696L158.295 37.5735Z" fill="url(#paint0_linear_19_24)"/>
<defs>
<linearGradient id="paint0_linear_19_24" x1="-4" y1="106.5" x2="227" y2="109.5" gradientUnits="userSpaceOnUse">
<stop stop-color="#AA367C"/>
<stop offset="1" stop-color="#4A2FBD"/>
</linearGradient>
</defs>
</svg>
