<svg width="204" height="204" viewBox="0 0 204 204" fill="none" xmlns="http://www.w3.org/2000/svg">
<g clip-path="url(#clip0_19_17)">
<path d="M190.968 0H13.0233C5.83714 0 0 5.82832 0 13.0233V190.977C0 198.154 5.83714 204 13.0233 204H190.968C198.154 204 203.991 198.163 203.991 190.977V13.0145C203.982 5.82832 198.154 0 190.968 0ZM92.6271 114.979C92.6271 120.649 92.0892 125.481 91.0135 129.466C89.9377 133.452 88.3065 136.652 86.1374 139.157C83.9595 141.626 81.235 143.451 77.9901 144.588C74.7365 145.743 70.9538 146.308 66.6421 146.308C62.8506 146.308 59.4295 145.708 56.3522 144.518C53.2749 143.327 50.6738 141.626 48.5223 139.404C46.362 137.173 44.7044 134.483 43.5405 131.327C42.3677 128.161 41.7858 124.626 41.7858 120.755V118.215H54.0067C54.0067 129.59 58.2215 135.286 66.6509 135.286C68.8112 135.286 70.7246 135.039 72.4175 134.519C74.1017 133.99 75.5301 133.029 76.7028 131.591C77.8755 130.163 78.7573 128.188 79.3657 125.631C79.9741 123.074 80.2827 119.741 80.2827 115.623V51.9787H92.6447V114.979H92.6271ZM160.83 133.452C159.569 136.026 157.77 138.275 155.469 140.197C153.15 142.119 150.319 143.609 146.995 144.703C143.68 145.77 139.941 146.308 135.824 146.308C117.572 146.308 107.934 139.104 106.955 124.678H118.965C119.018 132.826 124.599 136.908 135.691 136.908C138.151 136.908 140.356 136.644 142.252 136.088C144.147 135.55 145.734 134.801 146.987 133.849C148.256 132.896 149.208 131.759 149.87 130.463C150.513 129.175 150.857 127.773 150.857 126.239C150.857 124.626 150.602 123.347 150.117 122.377C149.623 121.398 148.653 120.525 147.225 119.767C145.805 119.018 143.821 118.277 141.299 117.563C138.769 116.822 135.462 115.914 131.388 114.847C127.421 113.859 123.982 112.872 121.107 111.884C118.215 110.914 115.852 109.724 114.009 108.322C112.158 106.911 110.782 105.183 109.892 103.129C109.001 101.065 108.56 98.4642 108.56 95.3252C108.56 92.5654 109.142 89.9995 110.315 87.6364C111.488 85.2733 113.154 83.2277 115.341 81.4907C117.51 79.7536 120.146 78.4046 123.232 77.417C126.345 76.4295 129.784 75.9445 133.566 75.9445C151.219 75.9445 160.195 82.2137 160.468 94.7697H148.662C148.239 88.5005 143.512 85.3527 134.475 85.3527C132.464 85.3527 130.613 85.5555 128.893 85.9523C127.174 86.3491 125.701 86.9222 124.432 87.6717C123.162 88.4212 122.192 89.347 121.478 90.4492C120.781 91.5514 120.428 92.8299 120.428 94.2759C120.428 95.5897 120.596 96.6655 120.922 97.5031C121.248 98.3496 122.033 99.1432 123.276 99.8662C124.52 100.589 126.363 101.303 128.787 102.009C131.221 102.714 134.545 103.578 138.769 104.61C142.842 105.589 146.378 106.612 149.385 107.661C152.374 108.719 154.86 109.997 156.862 111.496C158.855 112.987 160.318 114.812 161.288 116.972C162.241 119.123 162.726 121.822 162.726 125.049C162.726 128.073 162.082 130.877 160.83 133.452Z" fill="url(#paint0_linear_19_17)"/>
</g>
<defs>
<linearGradient id="paint0_linear_19_17" x1="237.5" y1="108" x2="-51" y2="105" gradientUnits="userSpaceOnUse">
<stop stop-color="#4A2FBD"/>
<stop offset="1" stop-color="#AA367C"/>
</linearGradient>
<clipPath id="clip0_19_17">
<rect width="204" height="204" fill="white"/>
</clipPath>
</defs>
</svg>
