<svg width="204" height="204" viewBox="0 0 204 204" fill="none" xmlns="http://www.w3.org/2000/svg">
<path d="M39.5683 19.5534V24.5337H48.3432V83.5859H39.5683V88.4477H94.826V71.2538H89.1342V82.8745H57.7109V24.5337H66.4857V19.5534H39.5683ZM130.281 24.7709L105.617 88.8034H99.5692V93.7837H119.016V88.8034H111.427L117.237 73.7439H146.171L151.981 88.8034H144.273V93.7837H169.412V88.8034H162.653L137.989 24.7709H130.281ZM131.823 35.9173L144.392 68.7636H119.135L131.823 35.9173ZM19.8843 94.258V110.503H25.5761V99.8312H45.853V158.409H37.0782V163.271H63.9956V158.409H55.2207V99.8312H75.4977V110.503H81.0709V94.258H19.8843ZM118.067 99.1198V103.981H125.419L145.578 134.219L125.775 163.152H117.83V168.014H140.597V163.152H131.704L148.542 138.488L165.025 163.152H156.843V168.014H184.116V163.152H176.764L154.945 130.543L173.207 103.981H181.033V99.1198H158.384V103.981H167.278L152.1 126.274L137.277 103.981H145.459V99.1198H118.067ZM67.0786 117.618V122.48H75.8534V181.651H67.0786V186.512H123.403V171.216H117.712V180.821H85.3397V152.006H107.87V160.662H113.561V137.658H107.87V146.314H85.3397V123.191H117V132.915H122.692V117.618H67.0786Z" fill="url(#paint0_linear_19_13)"/>
<defs>
<linearGradient id="paint0_linear_19_13" x1="222" y1="103" x2="-25" y2="103" gradientUnits="userSpaceOnUse">
<stop stop-color="#4A2FBD"/>
<stop offset="1" stop-color="#AA367C"/>
</linearGradient>
</defs>
</svg>
