<svg width="204" height="204" viewBox="0 0 204 204" fill="none" xmlns="http://www.w3.org/2000/svg">
<g clip-path="url(#clip0_19_2)">
<path d="M102 85.935C105.136 85.9352 108.203 86.8633 110.813 88.6025C113.423 90.3416 115.46 92.8141 116.668 95.7087C117.876 98.6032 118.201 101.79 117.601 104.869C117.001 107.948 115.504 110.78 113.298 113.01C111.092 115.239 108.276 116.766 105.204 117.399C102.132 118.031 98.9413 117.74 96.0341 116.563C93.1269 115.386 90.6329 113.375 88.866 110.784C87.0992 108.193 86.1385 105.136 86.105 102C86.0938 99.9015 86.4961 97.8213 87.2888 95.8783C88.0816 93.9352 89.2493 92.1673 90.7253 90.6755C92.2013 89.1837 93.9566 87.9973 95.8912 87.1839C97.8257 86.3705 99.9015 85.9462 102 85.935ZM62.645 170C68 173.23 79.645 168.3 93.245 155.55C88.6995 150.385 84.4158 144.994 80.41 139.4C73.5541 138.632 66.7443 137.497 60.01 136C55.675 154.19 57.29 166.685 62.645 170ZM68.68 121.21L66.215 116.875C65.2541 119.263 64.4311 121.703 63.75 124.185C66.045 124.695 68.595 125.12 71.23 125.545L68.68 121.21ZM124.27 114.75L131.155 102L124.27 89.25C121.72 84.745 119 80.75 116.535 76.755C111.945 76.5 107.1 76.5 102 76.5C96.9 76.5 92.055 76.5 87.465 76.5C85 80.495 82.28 84.49 79.73 88.995L72.845 102L79.73 114.75C82.28 119.255 85 123.25 87.465 127.245C92.055 127.245 96.9 127.245 102 127.245C107.1 127.245 111.945 127.245 116.535 127.245C119 123.25 121.72 119.255 124.27 114.75ZM102 57.63C100.385 59.5 98.685 61.455 96.985 63.75H107.015C105.315 61.455 103.615 59.5 102 57.63ZM102 146.37C103.615 144.5 105.315 142.545 107.015 140.25H96.985C98.685 142.545 100.385 144.5 102 146.37ZM141.27 34C136 30.77 124.27 35.7 110.755 48.45C115.301 53.6155 119.584 59.0056 123.59 64.6C130.44 65.2556 137.249 66.277 143.99 67.66C148.325 49.47 146.71 36.975 141.27 33.66M135.32 82.45L137.785 86.785C138.746 84.3976 139.569 81.9569 140.25 79.475C137.955 78.965 135.405 78.54 132.77 78.115L135.32 82.45ZM147.645 22.95C160.14 30.09 161.5 48.875 156.145 70.805C177.735 77.18 193.29 87.805 193.29 102.085C193.29 116.365 177.735 126.99 156.145 133.365C161.415 155.295 160.055 174.08 147.645 181.22C135.235 188.36 118.32 180.2 102 164.645C85.68 180.2 68.765 188.36 56.27 181.22C43.775 174.08 42.5 155.72 47.77 133.365C26.18 126.99 10.625 116.365 10.625 102.085C10.625 87.805 26.18 77.095 47.77 70.72C42.5 48.79 43.86 30.005 56.27 22.865C68.68 15.725 85.68 23.885 102 39.44C118.32 23.885 135.235 15.725 147.645 22.865M145.18 102C148.132 108.257 150.743 114.67 153 121.21C170.85 115.855 180.88 108.205 180.88 102C180.88 95.795 170.595 88.145 153 82.79C150.743 89.33 148.132 95.7428 145.18 102ZM58.82 102C55.8679 95.7428 53.2574 89.33 51 82.79C33.15 88.145 23.12 95.795 23.12 102C23.12 108.205 33.405 115.855 51 121.21C53.2574 114.67 55.8679 108.257 58.82 102ZM135.32 121.21L132.77 125.545C135.405 125.545 137.955 124.695 140.25 124.185C139.569 121.703 138.746 119.263 137.785 116.875L135.32 121.21ZM110.5 155.55C124.015 168.3 136 173.23 141.015 170C146.03 166.77 148.07 154.53 143.735 136C136.994 137.383 130.185 138.405 123.335 139.06C119.339 144.77 115.055 150.274 110.5 155.55ZM68.68 82.79L71.23 78.455C68.595 78.455 66.045 79.305 63.75 79.815C64.4311 82.2969 65.2541 84.7376 66.215 87.125L68.68 82.79ZM93.5 48.45C79.73 35.7 68 30.77 62.645 34C57.29 37.23 55.675 49.47 60.01 68C66.7506 66.617 73.5603 65.5956 80.41 64.94C84.4892 59.2237 88.8583 53.7198 93.5 48.45Z" fill="url(#paint0_linear_19_2)"/>
</g>
<defs>
<linearGradient id="paint0_linear_19_2" x1="246.5" y1="102" x2="-57.5" y2="102" gradientUnits="userSpaceOnUse">
<stop stop-color="#4A2FBD"/>
<stop offset="1" stop-color="#AA367C"/>
</linearGradient>
<clipPath id="clip0_19_2">
<rect width="204" height="204" fill="white"/>
</clipPath>
</defs>
</svg>
