<svg width="53" height="54" viewBox="0 0 53 54" fill="none" xmlns="http://www.w3.org/2000/svg">
<rect width="53" height="54" rx="10" fill="url(#paint0_linear_106_26)"/>
<path d="M27.605 15.725C28.9583 15.725 30.1483 16.04 31.175 16.67C32.225 17.2767 33.03 18.1283 33.59 19.225C34.1733 20.2983 34.465 21.5233 34.465 22.9C34.465 24.09 34.2667 25.3617 33.87 26.715C33.4967 28.045 33.03 29.0717 32.47 29.795C32.0267 30.425 31.2217 31.0433 30.055 31.65C28.8883 32.2333 27.9083 32.525 27.115 32.525C26.5317 32.525 25.5867 32.42 24.28 32.21L24.35 39.63L27.045 39.735V40.75H17.77V39.735L19.065 39.63L19.24 18.28L17.91 18.595L17.56 17.545L22.985 15.83L24.105 19.82L27.605 15.725ZM28.585 29.865C29.1683 28.535 29.46 26.9133 29.46 25C29.46 23.9267 29.285 22.9933 28.935 22.2C28.585 21.4067 28.1183 20.8 27.535 20.38C26.975 19.96 26.3683 19.75 25.715 19.75L24.175 21.29L24.245 28.395C25.785 29.1183 27.2317 29.6083 28.585 29.865Z" fill="white"/>
<defs>
<linearGradient id="paint0_linear_106_26" x1="-13.5" y1="25" x2="71.5" y2="25" gradientUnits="userSpaceOnUse">
<stop stop-color="#AA367C"/>
<stop offset="1" stop-color="#000AFF"/>
<stop offset="1" stop-color="#4A2FBD" stop-opacity="0.226998"/>
</linearGradient>
</defs>
</svg>
